<svg height="512pt" viewBox="-43 0 512 512" width="512pt" xmlns="http://www.w3.org/2000/svg" xmlns:xlink="http://www.w3.org/1999/xlink"><linearGradient id="a" gradientTransform="matrix(1.02752 0 0 -1.02752 -42.7317 509.024815)" gradientUnits="userSpaceOnUse" x1="51.4278" x2="446.4266" y1="426.3711" y2="31.3723"><stop offset="0" stop-color="#662d91"/><stop offset=".437" stop-color="#3873b3"/><stop offset="1" stop-color="#00c9dd"/></linearGradient><path d="m110.863281 435.207031h93.859375v76.792969h17.0625v-76.792969h93.863282c61.261718-.023437 110.90625-49.703125 110.886718-110.964843-.011718-37.949219-19.421875-73.257813-51.457031-93.601563 21.421875-44.519531 2.695313-97.976563-41.824219-119.398437-11.394531-5.480469-23.816406-8.484376-36.457031-8.816407.113281-.542969.214844-1.082031.316406-1.621093.128907-.671876.222657-1.347657.4375-2.796876l.136719-.898437c.1875-1.261719.375-2.558594.492188-3.777344.257812-2.636719.402343-5.300781.402343-8.003906 0-47.125-38.203125-85.328125-85.328125-85.328125-47.121094 0-85.324218 38.203125-85.324218 85.328125 0 2.703125.144531 5.367187.398437 7.976563.121094 1.28125.308594 2.558593.496094 3.804687l.246093 1.707031c.105469.683594.199219 1.359375.308594 1.964844s.222656 1.125.332032 1.707031c-49.386719 1.296875-88.375 42.386719-87.078126 91.773438.332032 12.621093 3.332032 25.027343 8.800782 36.402343-51.703125 32.867188-66.972656 101.421876-34.105469 153.121094 20.339844 32 55.617187 51.394532 93.535156 51.421875zm-43.996093-193.816406c4.160156-2.214844 5.738281-7.382813 3.523437-11.539063-.074219-.136718-.148437-.273437-.230469-.40625-20.738281-34.1875-9.839844-78.714843 24.347656-99.453124 11.359376-6.890626 24.398438-10.523438 37.683594-10.5 2.671875.011718 5.335938.164062 7.988282.460937 2.925781.304687 5.804687-.90625 7.636718-3.207031 1.820313-2.316406 2.316406-5.40625 1.316406-8.175782-.625-1.707031-1.1875-3.5-1.851562-5.972656-.421875-1.613281-.855469-3.234375-1.128906-4.957031l-.179688-1.210937-.125-.855469-.148437-.972657c-.144531-.9375-.296875-1.867187-.382813-2.847656-.203125-2.125-.324218-4.25-.324218-6.394531 0-37.699219 30.5625-68.261719 68.261718-68.261719 37.703125 0 68.261719 30.5625 68.261719 68.261719 0 2.144531-.117187 4.269531-.324219 6.402344-.085937.945312-.238281 1.875-.382812 2.8125l-.136719.921875s-.128906.855468-.136719.921875l-.195312 1.28125c-.300782 1.65625-.691406 3.277343-1.289063 5.5625-.488281 1.808593-1.050781 3.574219-1.707031 5.316406-1.601562 4.433594.691406 9.324219 5.121094 10.925781 1.226562.445313 2.539062.601563 3.839844.457032 39.726562-4.480469 75.566406 24.09375 80.046874 63.824218 1.792969 15.910156-1.734374 31.964844-10.039062 45.652344-2.4375 4.03125-1.140625 9.277344 2.890625 11.714844.132813.082031.265625.15625.40625.230468 45.78125 24.3125 63.183594 81.136719 38.871094 126.917969-16.277344 30.648438-48.132813 49.816407-82.832031 49.839844h-93.863282v-38.621094l90.730469-74.234375-10.800781-13.210937-79.929688 65.398437v-140.195312l56.753906-48.636719-11.09375-12.953125-45.660156 39.117188v-83.84375h-17.0625v134.433593l-71.085937-63.996093-11.417969 12.679687 82.503906 74.269531v149.792969h-93.859375c-51.839843-.027344-93.839843-42.066406-93.816406-93.90625.015625-34.699219 19.175781-66.5625 49.820313-82.84375zm0 0" fill="#ffffff"/></svg>