<?xml version="1.0" encoding="utf-8"?>
<!-- Generator: Adobe Illustrator 22.1.0, SVG Export Plug-In . SVG Version: 6.00 Build 0)  -->
<svg version="1.1" id="Layer_1" xmlns="http://www.w3.org/2000/svg" xmlns:xlink="http://www.w3.org/1999/xlink" x="0px" y="0px"
	 viewBox="0 0 89 133" style="enable-background:new 0 0 530.1 133;" xml:space="preserve">
<style type="text/css">
	.st0{fill:#00AAE8;}
	.st1{fill:#B1B5B5;}
	.st2{fill:#0063ac;}
</style>
<path class="st0" d="M72.8,95.3c-2.6,13.4-14.4,23.5-28.5,23.5c-8.5,0-16.1-3.7-21.4-9.5l8.1-14H15.9c0,0,0,0,0,0H3.6c0,0,0,0,0,0h0
	l0.1,0.1c2.7,20.1,20,35.6,40.8,35.6c20.9,0,38.1-15.5,40.8-35.7H72.8z"/>
<path class="st1" d="M44.4,26.1c3,5.2,6.5,11.1,9.9,17.4c5.5,10,9.4,18,12.1,24.4l-9.1,15.7h14.9c0,0,0,0,0,0h12.5c0,0,0,0,0,0h0
	l0,0C79.2,57.1,44.4,2.6,44.4,2.6s-2.8,4.4-7,11.4L44.4,26.1C44.4,26.1,44.4,26.1,44.4,26.1"/>
<path class="st2" d="M31.5,49h13.8L31.2,24.5l0,0l0,0C20.7,42.6,7.2,68,3.9,83.6h12.5C18.1,77.6,22.1,67,31.5,49"/>
</svg>
