<?xml version="1.0" encoding="utf-8"?>
<!-- Generator: Adobe Illustrator 22.1.0, SVG Export Plug-In . SVG Version: 6.00 Build 0)  -->
<svg version="1.1" id="Layer_1" xmlns="http://www.w3.org/2000/svg" xmlns:xlink="http://www.w3.org/1999/xlink" x="0px" y="0px"
	 viewBox="0 0 320.3 255.1" style="enable-background:new 0 0 320.3 255.1;" xml:space="preserve">
<style type="text/css">
	.st0{fill:#FFFFFF;}
	.st1{fill:#b0b6b6;}
	.st2{fill:#00aaf1;}
	 
</style>
<g>
	<path class="st0" d="M16.9,247.9c1.6,0,3-0.5,4.1-1.6c1.1-1.1,1.6-2.5,1.6-4.1s-0.5-3-1.6-4.1c-1.1-1.1-2.4-1.6-4.1-1.6H8v11.4
		H16.9z M2.5,252.8V218h22.9v5H8v8.5h9c3.2,0,5.9,1,8,3.1c2.1,2.1,3.2,4.6,3.2,7.6s-1.1,5.6-3.2,7.6c-2.1,2.1-4.8,3.1-8,3.1H2.5z"/>
</g>
<polygon class="st0" points="65.8,252.8 65.8,227.7 46.3,252.8 41.6,252.8 41.6,218 47.1,218 47.1,243.2 66.5,218 71.2,218 
	71.2,252.8 "/>
<path class="st0" d="M94.2,244.6c2.5,2.5,5.6,3.8,9.2,3.8s6.7-1.3,9.2-3.8c2.5-2.5,3.8-5.6,3.8-9.2c0-3.6-1.3-6.7-3.8-9.2
	c-2.5-2.5-5.6-3.8-9.2-3.8s-6.7,1.3-9.2,3.8c-2.5,2.5-3.8,5.6-3.8,9.2C90.4,239,91.7,242.1,94.2,244.6 M90.3,222.7
	c3.5-3.5,7.9-5.2,13.1-5.2s9.6,1.7,13.1,5.2c3.5,3.5,5.3,7.7,5.3,12.7c0,5-1.8,9.2-5.3,12.7c-3.5,3.5-7.9,5.2-13.1,5.2
	s-9.6-1.7-13.1-5.2c-3.5-3.5-5.3-7.7-5.3-12.7C85,230.4,86.7,226.2,90.3,222.7"/>
<polygon class="st0" points="177.3,252.8 135.5,252.8 135.5,218 141,218 141,247.9 153.7,247.9 153.7,218 159.2,218 159.2,247.9 
	171.8,247.9 171.8,218 177.3,218 "/>
<polygon class="st0" points="199.1,243.6 195.3,252.8 189.6,252.8 204.1,218 209.5,218 224,252.8 218.2,252.8 214.5,243.6 
	212.5,238.7 206.8,224.2 201.1,238.7 "/>
<path class="st0" d="M245.9,238.7h11.4l-5.7-14.4L245.9,238.7z M248.9,218h5.5l14.4,34.8h-5.7l-3.7-9.2H244l-3.7,9.2h-5.7L248.9,218
	z"/>
<polygon class="st0" points="312.8,218 317.5,218 317.5,252.8 312,252.8 312,227.5 299.3,243.4 286.6,227.5 286.6,252.8 
	281.2,252.8 281.2,218 285.9,218 299.3,234.9 "/>
<path class="st2" d="M196.6,118.1c-3.2,16.6-17.9,29.2-35.4,29.2c-10.6,0-20.1-4.6-26.7-11.8l10-17.4h-18.8c0,0,0,0,0,0h-15.4
	c0,0,0,0,0,0h0l0.1,0.1c3.4,25,24.8,44.3,50.8,44.3c26,0,47.4-19.3,50.8-44.4H196.6z"/>
<path class="st1" d="M160,31.9c3.8,6.4,8,13.9,12.3,21.7c6.8,12.5,11.6,22.4,15.1,30.3l-11.3,19.5h18.6c0,0,0,0,0,0h15.6
	c0,0,0,0,0,0h0l0,0C203.3,70.4,160,2.7,160,2.7s-3.5,5.5-8.7,14.1L160,31.9C160,31.9,160,31.9,160,31.9"/>
<path class="st0" d="M145.2,60.5h17.1l-17.5-30.6l0,0l0-0.1C131.7,52.5,115,84,110.9,103.4h15.6C128.5,96,133.4,82.8,145.2,60.5"/>
</svg>
