<?xml version="1.0" encoding="utf-8"?>
<!-- Generator: Adobe Illustrator 22.1.0, SVG Export Plug-In . SVG Version: 6.00 Build 0)  -->
<svg version="1.1" id="Layer_1" xmlns="http://www.w3.org/2000/svg" xmlns:xlink="http://www.w3.org/1999/xlink" x="0px" y="0px"
	 viewBox="0 0 530.1 133" style="enable-background:new 0 0 530.1 133;" xml:space="preserve">
<style type="text/css">
	.st0{fill:#00AAE8;}
	.st1{fill:#B1B5B5;}
	.st2{fill:#0064AF;}
</style>
<g fill="#ffffff">
<path d="M159.6,89.4c2,0,3.6-0.7,5-2c1.3-1.3,2-3,2-5c0-2-0.7-3.6-2-5c-1.3-1.3-3-2-5-2h-10.9v14H159.6z M141.9,95.5V52.9h28V59
	h-21.3v10.3h10.9c3.9,0,7.2,1.3,9.8,3.8c2.6,2.5,3.9,5.6,3.9,9.3c0,3.7-1.3,6.8-3.9,9.3c-2.6,2.5-5.9,3.8-9.8,3.8H141.9z"/>
<polygon points="219.2,95.5 219.2,64.8 195.5,95.5 189.8,95.5 189.8,52.9 196.4,52.9 196.4,83.6 220.1,52.9 225.9,52.9 225.9,95.5 
	"/>
	<path d="M253.9,85.4c3.1,3.1,6.8,4.6,11.2,4.6c4.4,0,8.2-1.5,11.2-4.6c3.1-3.1,4.6-6.8,4.6-11.2c0-4.4-1.5-8.1-4.6-11.2
		c-3.1-3.1-6.8-4.6-11.2-4.6c-4.4,0-8.2,1.5-11.2,4.6c-3.1,3.1-4.6,6.8-4.6,11.2C249.4,78.6,250.9,82.4,253.9,85.4 M249.2,58.7
		c4.3-4.2,9.6-6.3,16-6.3c6.4,0,11.7,2.1,16,6.3c4.3,4.2,6.5,9.4,6.5,15.5c0,6.1-2.2,11.3-6.5,15.5c-4.3,4.2-9.6,6.3-16,6.3
		c-6.4,0-11.7-2.1-16-6.3c-4.3-4.2-6.5-9.4-6.5-15.5C242.7,68.1,244.8,62.9,249.2,58.7"/>

<polygon points="355.5,95.5 304.4,95.5 304.4,52.9 311.1,52.9 311.1,89.4 326.6,89.4 326.6,52.9 333.3,52.9 333.3,89.4 348.8,89.4 
	348.8,52.9 355.5,52.9 "/>
<polygon points="382.1,84.2 377.5,95.5 370.5,95.5 388.2,52.9 394.8,52.9 412.5,95.5 405.5,95.5 400.9,84.2 398.5,78.2 391.5,60.5 
	384.5,78.2 "/>
<path d="M439.3,78.2h14l-7-17.6L439.3,78.2z M443,52.9h6.7l17.6,42.6h-7l-4.6-11.2h-18.8l-4.6,11.2h-7L443,52.9z"/>
<polygon points="520.9,52.9 504.5,73.6 488.1,52.9 482.3,52.9 482.3,95.5 489,95.5 489,64.5 504.5,83.9 520,64.5 520,95.5 
	526.7,95.5 526.7,52.9 "/>
	</g>
<path class="st0" d="M72.8,95.3c-2.6,13.4-14.4,23.5-28.5,23.5c-8.5,0-16.1-3.7-21.4-9.5l8.1-14H15.9c0,0,0,0,0,0H3.6c0,0,0,0,0,0h0
	l0.1,0.1c2.7,20.1,20,35.6,40.8,35.6c20.9,0,38.1-15.5,40.8-35.7H72.8z"/>
<path class="st1" d="M44.4,26.1c3,5.2,6.5,11.1,9.9,17.4c5.5,10,9.4,18,12.1,24.4l-9.1,15.7h14.9c0,0,0,0,0,0h12.5c0,0,0,0,0,0h0
	l0,0C79.2,57.1,44.4,2.6,44.4,2.6s-2.8,4.4-7,11.4L44.4,26.1C44.4,26.1,44.4,26.1,44.4,26.1"/>
<path class="st2" d="M31.5,49h13.8L31.2,24.5l0,0l0,0C20.7,42.6,7.2,68,3.9,83.6h12.5C18.1,77.6,22.1,67,31.5,49"/>
</svg>
