<svg  viewBox="-60 0 512 512"  xmlns="http://www.w3.org/2000/svg"><g fill="#4a5666"><path d="m0 61v30h30v30h330v-30h30v-30zm0 0"/><path d="m270 316c0 41.351562-33.648438 75-75 75s-75-33.648438-75-75c0-4.503906.820312-9.570312 2.257812-15h-92.257812v120h330v-120h-92.257812c1.4375 5.429688 2.257812 10.496094 2.257812 15zm0 0"/><path d="m360 451h-330v30h-30v31h390v-31h-30zm0 0"/><path d="m182.972656 193.335938 12.027344-16.144532 12.027344 16.144532c7 9.398437 32.355468 44.503906 48.679687 77.664062h104.292969v-120h-330v120h104.292969c16.324219-33.160156 41.679687-68.265625 48.679687-77.664062zm0 0"/><path d="m150 316c0 24.8125 20.1875 45 45 45s45-20.1875 45-45c0-16.273438-23.46875-56.542969-45-87.890625-21.53125 31.347656-45 71.617187-45 87.890625zm0 0"/><path d="m360 271h30v30h-30zm0 0"/><path d="m0 271h30v30h-30zm0 0"/><path d="m60 0h120v30h-120zm0 0"/></g></svg>