<svg height="448pt" viewBox="0 0 448 448" width="448pt" xmlns="http://www.w3.org/2000/svg"><g fill="#4a5666"><path d="m316.144531 416-92.144531-88.601562-92.144531 88.601562zm0 0"/><path d="m286.328125 232h-124.625l-2.375 11.007812 64.671875 62.191407 64.703125-62.214844zm0 0"/><path d="m292.671875 261.359375-57.128906 54.945313 87.097656 83.75zm0 0"/><path d="m0 432h448v16h-448zm0 0"/><path d="m416 392h32v24h-32zm0 0"/><path d="m0 112v108.488281l28.695312 51.511719h51.304688v-160zm0 0"/><path d="m448 132.6875v-132.6875h-32v132.6875l16 16zm0 0"/><path d="m424 160h16v216h-16zm0 0"/><path d="m174.144531 174.480469-8.976562 41.519531h117.703125l-14.429688-66.792969zm0 0"/><path d="m96 178.847656 304-81.464844v-33.039062l-304 81.398438zm0 0"/><path d="m155.351562 261.382812-29.992187 138.671876 87.097656-83.75zm0 0"/></g></svg>