<svg style="display:none">

<symbol id="check-form" xmlns="http://www.w3.org/2000/svg" xmlns:xlink="http://www.w3.org/1999/xlink" 
	 viewBox="0 0 434.168 434.168" style="enable-background:new 0 0 434.168 434.168;" xml:space="preserve">
	<path class="svg__check-form" d="M332.318,230.196V34.967H40.93v364.235h134.038c9.616,0,17.483,7.867,17.483,17.483s-7.867,17.483-17.483,17.483H23.446
		c-9.616,0-17.483-7.867-17.483-17.483V17.483C5.963,7.867,13.831,0,23.446,0h326.354c9.616,0,17.483,7.867,17.483,17.483v212.713
		c0,9.616-7.867,17.483-17.483,17.483S332.318,239.812,332.318,230.196z M422.357,272.739c-7.285-6.411-18.357-5.828-24.768,1.457
		l-95.867,106.648l-48.079-46.331c-6.993-6.702-18.066-6.411-24.768,0.583s-6.411,18.066,0.583,24.768l61.191,58.86
		c3.205,3.205,7.576,4.954,12.238,4.954c0.291,0,0.291,0,0.583,0c4.662-0.291,9.324-2.331,12.238-5.828l107.814-120.052
		C430.224,290.222,429.641,279.15,422.357,272.739z M268.212,101.986H110.863c-9.616,0-17.483,7.867-17.483,17.483
		s7.867,17.483,17.483,17.483h157.349c9.616,0,17.483-7.867,17.483-17.483S277.828,101.986,268.212,101.986z M285.696,215.627
		c0-9.616-7.867-17.483-17.483-17.483H110.863c-9.616,0-17.483,7.867-17.483,17.483c0,9.616,7.867,17.483,17.483,17.483h157.349
		C277.828,233.11,285.696,225.243,285.696,215.627z M110.863,291.388c-9.616,0-17.483,7.867-17.483,17.483
		c0,9.616,7.867,17.483,17.483,17.483h46.622c9.616,0,17.483-7.867,17.483-17.483c0-9.616-7.867-17.483-17.483-17.483H110.863z"/>
</symbol>

<symbol id="tanker-track" viewBox="0 -74 512 512" xmlns="http://www.w3.org/2000/svg"><path class="svg__tanker-track" d="m512 173.910156-43.722656-113.863281h-46.351563v-30.035156h-30v30.035156h-30.046875v-11.082031c0-27-21.964844-48.964844-48.960937-48.964844h-263.953125c-27 0-48.964844 21.964844-48.964844 48.964844v146.472656c0 21.765625 14.28125 40.253906 33.964844 46.601562v92.433594h62.625c6.195312 17.472656 22.878906 30.023438 42.445312 30.023438s36.25-12.550782 42.445313-30.023438h183.003906c6.195313 17.472656 22.875 30.023438 42.445313 30.023438 19.566406 0 36.25-12.550782 42.445312-30.023438h62.625zm-64.339844-83.863281 27.511719 71.644531h-53.242187v-71.644531zm-115.78125-41.082031v146.472656c0 10.457031-8.507812 18.964844-18.960937 18.964844h-38.285157v-184.402344h38.285157c10.453125 0 18.960937 8.507812 18.960937 18.964844zm-214.628906 165.433594v-184.398438h127.382812v184.398438zm-87.25-165.433594c0-10.457032 8.507812-18.964844 18.964844-18.964844h38.285156v184.398438h-38.285156c-10.457032 0-18.964844-8.503907-18.964844-18.960938zm109.035156 285.53125c-8.285156 0-15.023437-6.738282-15.023437-15.023438s6.738281-15.023437 15.023437-15.023437 15.023438 6.738281 15.023438 15.023437-6.738282 15.023438-15.023438 15.023438zm267.894532 0c-8.285157 0-15.027344-6.738282-15.027344-15.023438s6.742187-15.023437 15.027344-15.023437c8.28125 0 15.023437 6.738281 15.023437 15.023437s-6.742187 15.023438-15.023437 15.023438zm42.445312-30.023438c-6.195312-17.472656-22.878906-30.023437-42.445312-30.023437-19.570313 0-36.253907 12.550781-42.445313 30.023437h-183.003906c-6.195313-17.472656-22.878907-30.023437-42.445313-30.023437s-36.253906 12.550781-42.445312 30.023437h-32.625v-60.070312h248.949218c27 0 48.964844-21.964844 48.964844-48.964844v-105.390625h30.046875v101.644531h90.074219v112.78125zm0 0"/>
</symbol>

<symbol id="garbage" xmlns="http://www.w3.org/2000/svg" xmlns:xlink="http://www.w3.org/1999/xlink" x="0px" y="0px"
	 viewBox="0 0 486.4 486.4" style="enable-background:new 0 0 486.4 486.4;" xml:space="preserve">
		<path d="M446,70H344.8V53.5c0-29.5-24-53.5-53.5-53.5h-96.2c-29.5,0-53.5,24-53.5,53.5V70H40.4c-7.5,0-13.5,6-13.5,13.5
			S32.9,97,40.4,97h24.4v317.2c0,39.8,32.4,72.2,72.2,72.2h212.4c39.8,0,72.2-32.4,72.2-72.2V97H446c7.5,0,13.5-6,13.5-13.5
			S453.5,70,446,70z M168.6,53.5c0-14.6,11.9-26.5,26.5-26.5h96.2c14.6,0,26.5,11.9,26.5,26.5V70H168.6V53.5z M394.6,414.2
			c0,24.9-20.3,45.2-45.2,45.2H137c-24.9,0-45.2-20.3-45.2-45.2V97h302.9v317.2H394.6z"/>
		<path d="M243.2,411c7.5,0,13.5-6,13.5-13.5V158.9c0-7.5-6-13.5-13.5-13.5s-13.5,6-13.5,13.5v238.5
			C229.7,404.9,235.7,411,243.2,411z"/>
		<path d="M155.1,396.1c7.5,0,13.5-6,13.5-13.5V173.7c0-7.5-6-13.5-13.5-13.5s-13.5,6-13.5,13.5v208.9
			C141.6,390.1,147.7,396.1,155.1,396.1z"/>
		<path d="M331.3,396.1c7.5,0,13.5-6,13.5-13.5V173.7c0-7.5-6-13.5-13.5-13.5s-13.5,6-13.5,13.5v208.9
			C317.8,390.1,323.8,396.1,331.3,396.1z"/>
</symbol>
</svg>
