<svg viewBox="0 -74 512 512" xmlns="http://www.w3.org/2000/svg"><path fill="#ffffff" d="m512 173.910156-43.722656-113.863281h-46.351563v-30.035156h-30v30.035156h-30.046875v-11.082031c0-27-21.964844-48.964844-48.960937-48.964844h-263.953125c-27 0-48.964844 21.964844-48.964844 48.964844v146.472656c0 21.765625 14.28125 40.253906 33.964844 46.601562v92.433594h62.625c6.195312 17.472656 22.878906 30.023438 42.445312 30.023438s36.25-12.550782 42.445313-30.023438h183.003906c6.195313 17.472656 22.875 30.023438 42.445313 30.023438 19.566406 0 36.25-12.550782 42.445312-30.023438h62.625zm-64.339844-83.863281 27.511719 71.644531h-53.242187v-71.644531zm-115.78125-41.082031v146.472656c0 10.457031-8.507812 18.964844-18.960937 18.964844h-38.285157v-184.402344h38.285157c10.453125 0 18.960937 8.507812 18.960937 18.964844zm-214.628906 165.433594v-184.398438h127.382812v184.398438zm-87.25-165.433594c0-10.457032 8.507812-18.964844 18.964844-18.964844h38.285156v184.398438h-38.285156c-10.457032 0-18.964844-8.503907-18.964844-18.960938zm109.035156 285.53125c-8.285156 0-15.023437-6.738282-15.023437-15.023438s6.738281-15.023437 15.023437-15.023437 15.023438 6.738281 15.023438 15.023437-6.738282 15.023438-15.023438 15.023438zm267.894532 0c-8.285157 0-15.027344-6.738282-15.027344-15.023438s6.742187-15.023437 15.027344-15.023437c8.28125 0 15.023437 6.738281 15.023437 15.023437s-6.742187 15.023438-15.023437 15.023438zm42.445312-30.023438c-6.195312-17.472656-22.878906-30.023437-42.445312-30.023437-19.570313 0-36.253907 12.550781-42.445313 30.023437h-183.003906c-6.195313-17.472656-22.878907-30.023437-42.445313-30.023437s-36.253906 12.550781-42.445312 30.023437h-32.625v-60.070312h248.949218c27 0 48.964844-21.964844 48.964844-48.964844v-105.390625h30.046875v101.644531h90.074219v112.78125zm0 0"/></svg>