<svg xmlns="http://www.w3.org/2000/svg" width="103.116" height="103.116" viewBox="0 0 103.116 103.116">
    <path fill="#2e7dc0" d="M53.877 1.147c-1.043-1.529-3.604-1.529-4.64 0-1.333 1.978-32.702 48.505-32.702 66.947 0 19.306 15.718 35.021 35.021 35.021 19.306 0 35.022-15.716 35.022-35.021C86.58 49.652 55.209 3.12 53.877 1.147zm-2.32 96.365c-16.221 0-29.417-13.188-29.417-29.418 0-12.796 19.461-45.122 29.417-60.317 9.959 15.195 29.419 47.51 29.419 60.317 0 16.23-13.2 29.418-29.419 29.418zm2.801-8.405a2.804 2.804 0 0 1-2.801 2.802c-13.135 0-23.813-10.682-23.813-23.814 0-1.543 1.261-2.802 2.802-2.802s2.801 1.259 2.801 2.802c0 10.047 8.169 18.211 18.211 18.211a2.799 2.799 0 0 1 2.8 2.801z"/>
</svg>
