<svg height="512pt" viewBox="-43 0 512 512" width="512pt" xmlns="http://www.w3.org/2000/svg">
    <path d="M110.863 435.207h93.86V512h17.062v-76.793h93.863c61.262-.023 110.907-49.703 110.887-110.965a110.92 110.92 0 0 0-51.457-93.601c21.422-44.52 2.695-97.977-41.824-119.399a89.523 89.523 0 0 0-36.457-8.816c.113-.543.215-1.082.316-1.621.13-.672.223-1.348.438-2.797l.136-.899c.188-1.261.375-2.558.493-3.777.257-2.637.402-5.3.402-8.004C298.582 38.203 260.379 0 213.254 0c-47.121 0-85.324 38.203-85.324 85.328 0 2.703.144 5.367.398 7.977.121 1.28.309 2.558.496 3.804l.246 1.707c.106.684.2 1.36.309 1.965s.223 1.125.332 1.707c-49.387 1.297-88.375 42.387-87.078 91.774a89.443 89.443 0 0 0 8.8 36.402C-.27 263.531-15.538 332.086 17.329 383.785a110.927 110.927 0 0 0 93.535 51.422zM66.867 241.391c4.16-2.215 5.738-7.383 3.524-11.54-.075-.136-.149-.273-.23-.406-20.74-34.187-9.84-78.715 24.347-99.453a72.418 72.418 0 0 1 37.683-10.5c2.672.012 5.336.164 7.989.461a8.623 8.623 0 0 0 7.636-3.207 8.538 8.538 0 0 0 1.317-8.176c-.625-1.707-1.188-3.5-1.852-5.972-.422-1.614-.855-3.235-1.129-4.957l-.18-1.211-.124-.856-.149-.972c-.144-.938-.297-1.868-.383-2.848a67.072 67.072 0 0 1-.324-6.395c0-37.699 30.563-68.261 68.262-68.261 37.703 0 68.262 30.562 68.262 68.261a66.1 66.1 0 0 1-.325 6.403c-.086.945-.238 1.875-.382 2.812l-.137.922s-.129.856-.137.922l-.195 1.281c-.3 1.656-.692 3.278-1.29 5.563a57.698 57.698 0 0 1-1.706 5.316c-1.602 4.434.691 9.324 5.12 10.926a8.496 8.496 0 0 0 3.84.457c39.727-4.48 75.567 24.094 80.048 63.824a72.379 72.379 0 0 1-10.04 45.652c-2.437 4.032-1.14 9.278 2.891 11.715.133.082.266.157.406.23 45.782 24.313 63.184 81.138 38.871 126.919-16.277 30.648-48.132 49.816-82.832 49.84h-93.863V379.52l90.73-74.235-10.8-13.21-79.93 65.398V217.277l56.754-48.636-11.094-12.953-45.66 39.117V110.96h-17.062v134.434l-71.086-63.997-11.418 12.68 82.504 74.27V418.14h-93.86c-51.84-.028-93.84-42.067-93.816-93.907.015-34.699 19.176-66.562 49.82-82.843zm0 0" fill="#385991"/>
</svg>
