<svg id="Layer_1" xmlns="http://www.w3.org/2000/svg" viewBox="0 0 320.3 255.1">
    <style>
        .st0{fill:#fff}.st1{fill:#b0b6b6}.st2{fill:#00aaf1}
    </style>
    <path class="st0" d="M16.9 247.9c1.6 0 3-.5 4.1-1.6 1.1-1.1 1.6-2.5 1.6-4.1s-.5-3-1.6-4.1c-1.1-1.1-2.4-1.6-4.1-1.6H8v11.4h8.9zm-14.4 4.9V218h22.9v5H8v8.5h9c3.2 0 5.9 1 8 3.1 2.1 2.1 3.2 4.6 3.2 7.6s-1.1 5.6-3.2 7.6c-2.1 2.1-4.8 3.1-8 3.1H2.5z"/>
    <path class="st0" d="M65.8 252.8v-25.1l-19.5 25.1h-4.7V218h5.5v25.2L66.5 218h4.7v34.8z"/>
    <path class="st0" d="M94.2 244.6c2.5 2.5 5.6 3.8 9.2 3.8s6.7-1.3 9.2-3.8c2.5-2.5 3.8-5.6 3.8-9.2 0-3.6-1.3-6.7-3.8-9.2-2.5-2.5-5.6-3.8-9.2-3.8s-6.7 1.3-9.2 3.8c-2.5 2.5-3.8 5.6-3.8 9.2 0 3.6 1.3 6.7 3.8 9.2m-3.9-21.9c3.5-3.5 7.9-5.2 13.1-5.2s9.6 1.7 13.1 5.2 5.3 7.7 5.3 12.7c0 5-1.8 9.2-5.3 12.7s-7.9 5.2-13.1 5.2-9.6-1.7-13.1-5.2-5.3-7.7-5.3-12.7c0-5 1.7-9.2 5.3-12.7"/>
    <path class="st0" d="M177.3 252.8h-41.8V218h5.5v29.9h12.7V218h5.5v29.9h12.6V218h5.5z"/>
    <path class="st0" d="M199.1 243.6l-3.8 9.2h-5.7l14.5-34.8h5.4l14.5 34.8h-5.8l-3.7-9.2-2-4.9-5.7-14.5-5.7 14.5z"/>
    <path class="st0" d="M245.9 238.7h11.4l-5.7-14.4-5.7 14.4zm3-20.7h5.5l14.4 34.8h-5.7l-3.7-9.2H244l-3.7 9.2h-5.7l14.3-34.8z"/>
    <path class="st0" d="M312.8 218h4.7v34.8H312v-25.3l-12.7 15.9-12.7-15.9v25.3h-5.4V218h4.7l13.4 16.9z"/>
    <path class="st2" d="M196.6 118.1c-3.2 16.6-17.9 29.2-35.4 29.2-10.6 0-20.1-4.6-26.7-11.8l10-17.4h-34.2l.1.1c3.4 25 24.8 44.3 50.8 44.3 26 0 47.4-19.3 50.8-44.4h-15.4z"/>
    <path class="st1" d="M160 31.9c3.8 6.4 8 13.9 12.3 21.7 6.8 12.5 11.6 22.4 15.1 30.3l-11.3 19.5h34.2C203.3 70.4 160 2.7 160 2.7s-3.5 5.5-8.7 14.1l8.7 15.1"/>
    <path class="st0" d="M145.2 60.5h17.1l-17.5-30.6v-.1C131.7 52.5 115 84 110.9 103.4h15.6c2-7.4 6.9-20.6 18.7-42.9"/>
</svg>
