<svg id="Layer_1" xmlns="http://www.w3.org/2000/svg" viewBox="0 0 530.1 133">
    <style>
        .st0{fill:#00aae8}.st1{fill:#b1b5b5}.st2{fill:#0064af}
    </style>
    <g fill="#fff">
        <path d="M159.6 89.4c2 0 3.6-.7 5-2 1.3-1.3 2-3 2-5s-.7-3.6-2-5c-1.3-1.3-3-2-5-2h-10.9v14h10.9zm-17.7 6.1V52.9h28V59h-21.3v10.3h10.9c3.9 0 7.2 1.3 9.8 3.8 2.6 2.5 3.9 5.6 3.9 9.3 0 3.7-1.3 6.8-3.9 9.3-2.6 2.5-5.9 3.8-9.8 3.8h-17.6z"/>
        <path d="M219.2 95.5V64.8l-23.7 30.7h-5.7V52.9h6.6v30.7l23.7-30.7h5.8v42.6z"/>
        <path d="M253.9 85.4c3.1 3.1 6.8 4.6 11.2 4.6 4.4 0 8.2-1.5 11.2-4.6 3.1-3.1 4.6-6.8 4.6-11.2 0-4.4-1.5-8.1-4.6-11.2-3.1-3.1-6.8-4.6-11.2-4.6-4.4 0-8.2 1.5-11.2 4.6-3.1 3.1-4.6 6.8-4.6 11.2.1 4.4 1.6 8.2 4.6 11.2m-4.7-26.7c4.3-4.2 9.6-6.3 16-6.3s11.7 2.1 16 6.3c4.3 4.2 6.5 9.4 6.5 15.5s-2.2 11.3-6.5 15.5c-4.3 4.2-9.6 6.3-16 6.3s-11.7-2.1-16-6.3c-4.3-4.2-6.5-9.4-6.5-15.5s2.1-11.3 6.5-15.5"/>
        <path d="M355.5 95.5h-51.1V52.9h6.7v36.5h15.5V52.9h6.7v36.5h15.5V52.9h6.7z"/>
        <path d="M382.1 84.2l-4.6 11.3h-7l17.7-42.6h6.6l17.7 42.6h-7l-4.6-11.3-2.4-6-7-17.7-7 17.7z"/>
        <path d="M439.3 78.2h14l-7-17.6-7 17.6zm3.7-25.3h6.7l17.6 42.6h-7l-4.6-11.2h-18.8l-4.6 11.2h-7L443 52.9z"/>
        <path d="M520.9 52.9l-16.4 20.7-16.4-20.7h-5.8v42.6h6.7v-31l15.5 19.4L520 64.5v31h6.7V52.9z"/>
    </g>
    <path class="st0" d="M72.8 95.3c-2.6 13.4-14.4 23.5-28.5 23.5-8.5 0-16.1-3.7-21.4-9.5l8.1-14H3.6l.1.1c2.7 20.1 20 35.6 40.8 35.6 20.9 0 38.1-15.5 40.8-35.7H72.8z"/>
    <path class="st1" d="M44.4 26.1c3 5.2 6.5 11.1 9.9 17.4 5.5 10 9.4 18 12.1 24.4l-9.1 15.7h27.4c-5.5-26.5-40.3-81-40.3-81S41.6 7 37.4 14l7 12.1"/>
    <path class="st2" d="M31.5 49h13.8L31.2 24.5C20.7 42.6 7.2 68 3.9 83.6h12.5c1.7-6 5.7-16.6 15.1-34.6"/>
</svg>
