<svg id="Layer_1" xmlns="http://www.w3.org/2000/svg" viewBox="0 0 89 133">
    <style>
        .st0{fill:#00aae8}.st1{fill:#b1b5b5}.st2{fill:#0063ac}
    </style>
    <path class="st0" d="M72.8 95.3c-2.6 13.4-14.4 23.5-28.5 23.5-8.5 0-16.1-3.7-21.4-9.5l8.1-14H3.6l.1.1c2.7 20.1 20 35.6 40.8 35.6 20.9 0 38.1-15.5 40.8-35.7H72.8z"/>
    <path class="st1" d="M44.4 26.1c3 5.2 6.5 11.1 9.9 17.4 5.5 10 9.4 18 12.1 24.4l-9.1 15.7h27.4c-5.5-26.5-40.3-81-40.3-81S41.6 7 37.4 14l7 12.1"/>
    <path class="st2" d="M31.5 49h13.8L31.2 24.5C20.7 42.6 7.2 68 3.9 83.6h12.5c1.7-6 5.7-16.6 15.1-34.6"/>
</svg>
