<svg viewBox="-60 0 512 512" xmlns="http://www.w3.org/2000/svg">
    <g fill="#4a5666">
        <path d="M0 61v30h30v30h330V91h30V61zm0 0"/>
        <path d="M270 316c0 41.352-33.648 75-75 75s-75-33.648-75-75c0-4.504.82-9.57 2.258-15H30v120h330V301h-92.258c1.438 5.43 2.258 10.496 2.258 15zm0 0"/>
        <path d="M360 451H30v30H0v31h390v-31h-30zm0 0"/>
        <path d="M182.973 193.336L195 177.19l12.027 16.145c7 9.398 32.356 44.504 48.68 77.664H360V151H30v120h104.293c16.324-33.16 41.68-68.266 48.68-77.664zm0 0"/>
        <path d="M150 316c0 24.813 20.188 45 45 45s45-20.188 45-45c0-16.273-23.469-56.543-45-87.89-21.531 31.347-45 71.617-45 87.89zm0 0"/>
        <path d="M360 271h30v30h-30zm0 0"/>
        <path d="M0 271h30v30H0zm0 0"/>
        <path d="M60 0h120v30H60zm0 0"/>
    </g>
</svg>
