<svg height="448pt" viewBox="0 -68 448.65767 448" width="448pt" xmlns="http://www.w3.org/2000/svg">
    <g fill="#4a5666">
        <path d="M368.328 224.328h-288v14.664a48.065 48.065 0 0 1 20 22.047 47.994 47.994 0 0 1 41.3-28.61 47.995 47.995 0 0 1 44.196 23.9h77.024a47.997 47.997 0 0 1 44.191-23.892 47.992 47.992 0 0 1 41.297 28.602A48.19 48.19 0 0 1 368.328 239zm0 0"/>
        <path d="M64.328 40.328h48v-16h-48zm0 0"/>
        <path d="M64.328 88.328h48v16h-48zm0 0"/>
        <path d="M64.328 56.328h48v16h-48zm0 0"/>
        <path d="M336.328 8.328h48v8h-48zm0 0"/>
        <path d="M439.73 273.129c.801 4.766.801 9.633 0 14.398 0 .266 0 .54-.066.801h8.664v-16h-8.664c.047.274.024.543.066.8zm0 0"/>
        <path d="M405.129 251.023c-.098-.039-.192-.054-.29-.085a31.818 31.818 0 0 0-25.296.07c-16.195 7.097-23.613 25.953-16.59 42.183a32.084 32.084 0 0 0 29.383 19.137 32.084 32.084 0 0 0 29.351-19.183 31.9 31.9 0 0 0 .477-24.5 31.935 31.935 0 0 0-17.035-17.622zm-12.8 45.305c-8.837 0-16-7.164-16-16s7.163-16 16-16 16 7.164 16 16-7.165 16-16 16zm0 0"/>
        <path d="M8.992 272.328H.328v16h8.664c-.047-.27 0-.543-.062-.8-.801-4.766-.801-9.633 0-14.4.039-.273.023-.542.062-.8zm0 0"/>
        <path d="M392.328 232.328c.258 0 .496.059.746.067a47.64 47.64 0 0 1 6.055.503c.398.055.8 0 1.2.094v-8.664h-16v8.664c.374-.062.8 0 1.16-.094 2.03-.3 4.077-.472 6.128-.511.238 0 .473-.059.711-.059zm0 0"/>
        <path d="M434.563 32.328H128.327v96a8 8 0 0 1-16 0v-8h-48v8a8 8 0 0 1-16 0v-96h-34.23a281.704 281.704 0 0 0 0 176h420.465a281.76 281.76 0 0 0 0-176zm0 0"/>
        <path d="M56.328 232.328c.258 0 .496.059.746.067a47.64 47.64 0 0 1 6.055.503c.398.055.8 0 1.2.094v-8.664h-16v8.664c.374-.062.8 0 1.16-.094 2.03-.3 4.077-.472 6.128-.511.238 0 .473-.059.711-.059zm0 0"/>
        <path d="M69.129 251.023c-.098-.039-.192-.054-.29-.085a31.818 31.818 0 0 0-25.296.07c-16.191 7.105-23.598 25.957-16.574 42.183a32.095 32.095 0 0 0 29.418 19.133 32.1 32.1 0 0 0 29.351-19.234 31.939 31.939 0 0 0-16.61-42.067zm-12.8 45.305c-8.837 0-16-7.164-16-16s7.163-16 16-16 16 7.164 16 16-7.165 16-16 16zm0 0"/>
        <path d="M256.992 272.328h-65.328c.047.274 0 .543.066.8.801 4.767.801 9.634 0 14.4 0 .265 0 .538-.066.8h65.328c-.047-.27 0-.543-.062-.8-.801-4.766-.801-9.633 0-14.4.039-.273.023-.542.062-.8zm0 0"/>
        <path d="M304.328 248.328a32.273 32.273 0 0 0-29.375 19.2 32.614 32.614 0 0 0 0 25.679 32.095 32.095 0 0 0 29.418 19.133 32.108 32.108 0 0 0 29.352-19.235 32.692 32.692 0 0 0-.051-25.601 32.22 32.22 0 0 0-29.344-19.176zm0 48c-8.836 0-16-7.164-16-16s7.164-16 16-16 16 7.164 16 16-7.164 16-16 16zm0 0"/>
        <path d="M144.328 248.328a31.827 31.827 0 0 0-32 32c0 4.422.899 8.8 2.64 12.863a32.084 32.084 0 0 0 29.384 19.137 32.084 32.084 0 0 0 29.351-19.183 32.614 32.614 0 0 0 0-25.68 32.219 32.219 0 0 0-29.375-19.137zm0 48c-8.836 0-16-7.164-16-16s7.164-16 16-16 16 7.164 16 16-7.164 16-16 16zm0 0"/>
        <path d="M64.328 8.328a8 8 0 0 0-16 0v16h16zm0 0"/>
        <path d="M128.328 8.328a8 8 0 0 0-16 0v16h16zm0 0"/>
    </g>
</svg>
