<svg xmlns="http://www.w3.org/2000/svg" viewBox="0 0 33 33">
    <g fill="#385991">
        <path d="M25.346 31.83h-5.594a.5.5 0 0 1-.5-.5v-2.232h-4.333v2.232a.5.5 0 0 1-.5.5H8.825a.5.5 0 0 1-.5-.5v-3.98c-4.257-.652-8.035-4.869-8.2-5.055A.505.505 0 0 1 0 21.963V16.89a.5.5 0 0 1 .5-.5c2.198 0 4.236-2.335 4.931-3.221-1.868-2.025-1.157-5.136-1.124-5.273a.5.5 0 0 1 .694-.339c.022.01 2.249 1.017 4.941 1.28 6.698-2.11 12.778-1.686 16.69 1.173 2.513 1.837 3.896 4.557 3.896 7.66 0 6.771-3.74 10.267-4.683 11.04v2.619a.499.499 0 0 1-.499.501zm-5.094-1h4.594v-2.362c0-.16.077-.311.207-.404.044-.033 4.476-3.342 4.476-10.393 0-2.775-1.238-5.209-3.486-6.853-3.67-2.682-9.464-3.046-15.894-.996a.571.571 0 0 1-.197.021c-2.076-.188-3.867-.784-4.762-1.128-.099.958-.097 2.862 1.233 4.026a.5.5 0 0 1 .083.66C6.399 13.556 3.99 17 1 17.36v4.408c.703.746 4.236 4.31 7.871 4.641a.5.5 0 0 1 .455.498v3.923h4.594v-2.232a.5.5 0 0 1 .5-.5h5.333a.5.5 0 0 1 .5.5v2.232z"/>
        <path d="M11.966 8.996a.5.5 0 0 1-.49-.404 6.231 6.231 0 0 1 6.109-7.421 6.231 6.231 0 0 1 6.117 7.381.494.494 0 0 1-.584.398.5.5 0 0 1-.398-.584 5.231 5.231 0 0 0-5.134-6.196 5.232 5.232 0 0 0-5.129 6.23.5.5 0 0 1-.491.596z"/>
        <path d="M10.063 17.389a.5.5 0 0 1-.35-.14.508.508 0 0 1-.01-.71c.2-.19.52-.19.71-.01.09.1.15.229.15.359a.512.512 0 0 1-.5.501z"/>
        <path d="M4.302 25.669a.5.5 0 0 1-.089-.992c.023-.004 2.359-.454 2.969-2.227a.5.5 0 1 1 .945.326c-.802 2.331-3.617 2.863-3.736 2.885a.447.447 0 0 1-.089.008z"/>
        <path d="M31.278 16.97c-.796 0-1.543-.433-1.648-.495a.5.5 0 0 1 .515-.858c.232.138.999.488 1.449.296.075-.031.302-.128.42-.633a.5.5 0 0 1 .974.227c-.193.828-.653 1.18-1.005 1.328-.23.097-.47.135-.705.135z"/>
    </g>
</svg>
