<svg height="448pt" viewBox="0 0 448 448" width="448pt" xmlns="http://www.w3.org/2000/svg">
    <g fill="#4a5666">
        <path d="M316.145 416L224 327.398 131.855 416zm0 0"/>
        <path d="M286.328 232H161.703l-2.375 11.008L224 305.199l64.703-62.215zm0 0"/>
        <path d="M292.672 261.36l-57.129 54.945 87.098 83.75zm0 0"/>
        <path d="M0 432h448v16H0zm0 0"/>
        <path d="M416 392h32v24h-32zm0 0"/>
        <path d="M0 112v108.488L28.695 272H80V112zm0 0"/>
        <path d="M448 132.688V0h-32v132.688l16 16zm0 0"/>
        <path d="M424 160h16v216h-16zm0 0"/>
        <path d="M174.145 174.48L165.168 216h117.703l-14.43-66.793zm0 0"/>
        <path d="M96 178.848l304-81.465v-33.04l-304 81.4zm0 0"/>
        <path d="M155.352 261.383l-29.993 138.672 87.098-83.75zm0 0"/>
    </g>
</svg>
