<svg viewBox="0 -74 512 512" xmlns="http://www.w3.org/2000/svg">
    <path fill="#385991" d="M512 173.91L468.277 60.047h-46.351V30.012h-30v30.035h-30.047V48.965c0-27-21.965-48.965-48.961-48.965H48.965C21.965 0 0 21.965 0 48.965v146.472c0 21.766 14.281 40.254 33.965 46.602v92.434H96.59c6.195 17.472 22.879 30.023 42.445 30.023s36.25-12.55 42.445-30.023h183.004c6.196 17.472 22.875 30.023 42.446 30.023 19.566 0 36.25-12.55 42.445-30.023H512zm-64.34-83.863l27.512 71.644H421.93V90.047zM331.88 48.965v146.472c0 10.458-8.508 18.965-18.961 18.965h-38.285V30h38.285c10.453 0 18.96 8.508 18.96 18.965zM117.25 214.398V30h127.383v184.398zM30 48.965C30 38.508 38.508 30 48.965 30H87.25v184.398H48.965c-10.457 0-18.965-8.503-18.965-18.96zm109.035 285.531c-8.285 0-15.023-6.738-15.023-15.023s6.738-15.024 15.023-15.024 15.024 6.738 15.024 15.024-6.739 15.023-15.024 15.023zm267.895 0c-8.285 0-15.028-6.738-15.028-15.023s6.743-15.024 15.028-15.024c8.28 0 15.023 6.738 15.023 15.024s-6.742 15.023-15.023 15.023zm42.445-30.023c-6.195-17.473-22.879-30.024-42.445-30.024-19.57 0-36.254 12.551-42.446 30.024H181.48c-6.195-17.473-22.878-30.024-42.445-30.024S102.781 287 96.59 304.473H63.965v-60.07h248.95c27 0 48.964-21.966 48.964-48.966V90.047h30.047V191.69H482v112.782zm0 0"/>
</svg>
